<mxfile host="Electron" modified="2024-02-28T15:50:10.173Z" agent="Mozilla/5.0 (Windows NT 10.0; Win64; x64) AppleWebKit/537.36 (KHTML, like Gecko) draw.io/23.1.5 Chrome/120.0.6099.109 Electron/28.1.0 Safari/537.36" etag="mNvt-CLouGlG6N4MBDBO" version="23.1.5" type="device">
  <diagram name="Page-1" id="7ZwxgMPJDTxNBmDh_PGh">
    <mxGraphModel dx="2578" dy="1003" grid="1" gridSize="10" guides="1" tooltips="1" connect="1" arrows="1" fold="1" page="1" pageScale="1" pageWidth="850" pageHeight="1100" math="0" shadow="0">
      <root>
        <mxCell id="0" />
        <mxCell id="1" parent="0" />
        <mxCell id="9gW7VN4m7bYU96dRgLf6-59" style="edgeStyle=orthogonalEdgeStyle;rounded=0;orthogonalLoop=1;jettySize=auto;html=1;entryX=0;entryY=0.5;entryDx=0;entryDy=0;" edge="1" parent="1" source="9gW7VN4m7bYU96dRgLf6-1" target="9gW7VN4m7bYU96dRgLf6-4">
          <mxGeometry relative="1" as="geometry" />
        </mxCell>
        <mxCell id="9gW7VN4m7bYU96dRgLf6-80" value="Alarm" style="edgeLabel;html=1;align=center;verticalAlign=middle;resizable=0;points=[];" vertex="1" connectable="0" parent="9gW7VN4m7bYU96dRgLf6-59">
          <mxGeometry x="-0.0375" y="-1" relative="1" as="geometry">
            <mxPoint y="-2" as="offset" />
          </mxGeometry>
        </mxCell>
        <mxCell id="9gW7VN4m7bYU96dRgLf6-1" value="&lt;b&gt;&lt;font style=&quot;font-size: 14px;&quot;&gt;Realtime Monitoring System&lt;/font&gt;&lt;/b&gt;" style="ellipse;whiteSpace=wrap;html=1;aspect=fixed;strokeWidth=1;" vertex="1" parent="1">
          <mxGeometry x="200" y="280" width="120" height="120" as="geometry" />
        </mxCell>
        <mxCell id="9gW7VN4m7bYU96dRgLf6-52" style="edgeStyle=orthogonalEdgeStyle;rounded=0;orthogonalLoop=1;jettySize=auto;html=1;endArrow=none;endFill=0;startArrow=classic;startFill=1;" edge="1" parent="1" source="9gW7VN4m7bYU96dRgLf6-2" target="9gW7VN4m7bYU96dRgLf6-1">
          <mxGeometry relative="1" as="geometry">
            <Array as="points">
              <mxPoint x="260" y="120" />
            </Array>
          </mxGeometry>
        </mxCell>
        <mxCell id="9gW7VN4m7bYU96dRgLf6-73" value="Alarm" style="edgeLabel;html=1;align=center;verticalAlign=middle;resizable=0;points=[];" vertex="1" connectable="0" parent="9gW7VN4m7bYU96dRgLf6-52">
          <mxGeometry x="-0.4415" y="1" relative="1" as="geometry">
            <mxPoint x="3" y="1" as="offset" />
          </mxGeometry>
        </mxCell>
        <mxCell id="9gW7VN4m7bYU96dRgLf6-2" value="Administrators" style="rounded=1;whiteSpace=wrap;html=1;" vertex="1" parent="1">
          <mxGeometry x="-75" y="90" width="120" height="120" as="geometry" />
        </mxCell>
        <mxCell id="9gW7VN4m7bYU96dRgLf6-46" style="edgeStyle=orthogonalEdgeStyle;rounded=0;orthogonalLoop=1;jettySize=auto;html=1;startArrow=classic;startFill=1;endArrow=none;endFill=0;" edge="1" parent="1" source="9gW7VN4m7bYU96dRgLf6-3" target="9gW7VN4m7bYU96dRgLf6-1">
          <mxGeometry relative="1" as="geometry">
            <Array as="points">
              <mxPoint x="280" y="100" />
            </Array>
          </mxGeometry>
        </mxCell>
        <mxCell id="9gW7VN4m7bYU96dRgLf6-66" value="Production Parameter" style="edgeLabel;html=1;align=center;verticalAlign=middle;resizable=0;points=[];" vertex="1" connectable="0" parent="9gW7VN4m7bYU96dRgLf6-46">
          <mxGeometry x="-0.4284" y="-1" relative="1" as="geometry">
            <mxPoint x="7" y="1" as="offset" />
          </mxGeometry>
        </mxCell>
        <mxCell id="9gW7VN4m7bYU96dRgLf6-47" style="edgeStyle=orthogonalEdgeStyle;rounded=0;orthogonalLoop=1;jettySize=auto;html=1;entryX=0.667;entryY=0.041;entryDx=0;entryDy=0;entryPerimeter=0;startArrow=classic;startFill=1;endArrow=none;endFill=0;" edge="1" parent="1" source="9gW7VN4m7bYU96dRgLf6-3" target="9gW7VN4m7bYU96dRgLf6-1">
          <mxGeometry relative="1" as="geometry">
            <Array as="points">
              <mxPoint x="280" y="140" />
            </Array>
          </mxGeometry>
        </mxCell>
        <mxCell id="9gW7VN4m7bYU96dRgLf6-67" value="Alarm" style="edgeLabel;html=1;align=center;verticalAlign=middle;resizable=0;points=[];" vertex="1" connectable="0" parent="9gW7VN4m7bYU96dRgLf6-47">
          <mxGeometry x="-0.3666" relative="1" as="geometry">
            <mxPoint x="7" y="-1" as="offset" />
          </mxGeometry>
        </mxCell>
        <mxCell id="9gW7VN4m7bYU96dRgLf6-3" value="Monitors" style="rounded=1;whiteSpace=wrap;html=1;" vertex="1" parent="1">
          <mxGeometry x="480" y="90" width="120" height="120" as="geometry" />
        </mxCell>
        <mxCell id="9gW7VN4m7bYU96dRgLf6-4" value="Non-user &lt;br&gt;Employees" style="rounded=1;whiteSpace=wrap;html=1;" vertex="1" parent="1">
          <mxGeometry x="480" y="280" width="120" height="120" as="geometry" />
        </mxCell>
        <mxCell id="9gW7VN4m7bYU96dRgLf6-56" style="edgeStyle=orthogonalEdgeStyle;rounded=0;orthogonalLoop=1;jettySize=auto;html=1;startArrow=none;startFill=0;endArrow=classic;endFill=1;exitX=1.011;exitY=0.585;exitDx=0;exitDy=0;entryX=0.332;entryY=0.029;entryDx=0;entryDy=0;entryPerimeter=0;exitPerimeter=0;" edge="1" parent="1" source="9gW7VN4m7bYU96dRgLf6-2" target="9gW7VN4m7bYU96dRgLf6-1">
          <mxGeometry relative="1" as="geometry">
            <mxPoint x="30" y="200" as="sourcePoint" />
            <mxPoint x="240" y="280" as="targetPoint" />
            <Array as="points">
              <mxPoint x="240" y="160" />
            </Array>
          </mxGeometry>
        </mxCell>
        <mxCell id="9gW7VN4m7bYU96dRgLf6-57" value="Production Parameter config" style="edgeLabel;html=1;align=center;verticalAlign=middle;resizable=0;points=[];" vertex="1" connectable="0" parent="9gW7VN4m7bYU96dRgLf6-56">
          <mxGeometry x="-0.299" y="-1" relative="1" as="geometry">
            <mxPoint x="-7" y="-2" as="offset" />
          </mxGeometry>
        </mxCell>
        <mxCell id="9gW7VN4m7bYU96dRgLf6-49" style="edgeStyle=orthogonalEdgeStyle;rounded=0;orthogonalLoop=1;jettySize=auto;html=1;exitX=0.989;exitY=0.085;exitDx=0;exitDy=0;startArrow=classic;startFill=1;endArrow=none;endFill=0;exitPerimeter=0;" edge="1" parent="1" source="9gW7VN4m7bYU96dRgLf6-2" target="9gW7VN4m7bYU96dRgLf6-1">
          <mxGeometry relative="1" as="geometry">
            <Array as="points">
              <mxPoint x="45" y="100" />
              <mxPoint x="260" y="100" />
            </Array>
          </mxGeometry>
        </mxCell>
        <mxCell id="9gW7VN4m7bYU96dRgLf6-70" value="Production Parameter" style="edgeLabel;html=1;align=center;verticalAlign=middle;resizable=0;points=[];" vertex="1" connectable="0" parent="9gW7VN4m7bYU96dRgLf6-49">
          <mxGeometry x="-0.4442" y="1" relative="1" as="geometry">
            <mxPoint x="-1" y="1" as="offset" />
          </mxGeometry>
        </mxCell>
        <mxCell id="9gW7VN4m7bYU96dRgLf6-76" style="edgeStyle=orthogonalEdgeStyle;rounded=0;orthogonalLoop=1;jettySize=auto;html=1;entryX=0.333;entryY=0.028;entryDx=0;entryDy=0;entryPerimeter=0;" edge="1" parent="1" source="9gW7VN4m7bYU96dRgLf6-2" target="9gW7VN4m7bYU96dRgLf6-1">
          <mxGeometry relative="1" as="geometry">
            <Array as="points">
              <mxPoint x="240" y="180" />
            </Array>
          </mxGeometry>
        </mxCell>
        <mxCell id="9gW7VN4m7bYU96dRgLf6-77" value="Alarm Config" style="edgeLabel;html=1;align=center;verticalAlign=middle;resizable=0;points=[];" vertex="1" connectable="0" parent="9gW7VN4m7bYU96dRgLf6-76">
          <mxGeometry x="-0.3566" relative="1" as="geometry">
            <mxPoint as="offset" />
          </mxGeometry>
        </mxCell>
        <mxCell id="9gW7VN4m7bYU96dRgLf6-78" style="edgeStyle=orthogonalEdgeStyle;rounded=0;orthogonalLoop=1;jettySize=auto;html=1;entryX=0.337;entryY=0.029;entryDx=0;entryDy=0;entryPerimeter=0;" edge="1" parent="1" source="9gW7VN4m7bYU96dRgLf6-2" target="9gW7VN4m7bYU96dRgLf6-1">
          <mxGeometry relative="1" as="geometry">
            <Array as="points">
              <mxPoint x="240" y="200" />
            </Array>
          </mxGeometry>
        </mxCell>
        <mxCell id="9gW7VN4m7bYU96dRgLf6-79" value="User information" style="edgeLabel;html=1;align=center;verticalAlign=middle;resizable=0;points=[];" vertex="1" connectable="0" parent="9gW7VN4m7bYU96dRgLf6-78">
          <mxGeometry x="-0.4034" y="1" relative="1" as="geometry">
            <mxPoint x="12" as="offset" />
          </mxGeometry>
        </mxCell>
        <mxCell id="9gW7VN4m7bYU96dRgLf6-81" style="edgeStyle=orthogonalEdgeStyle;rounded=0;orthogonalLoop=1;jettySize=auto;html=1;entryX=-0.001;entryY=0.7;entryDx=0;entryDy=0;entryPerimeter=0;" edge="1" parent="1" source="9gW7VN4m7bYU96dRgLf6-1" target="9gW7VN4m7bYU96dRgLf6-3">
          <mxGeometry relative="1" as="geometry">
            <Array as="points">
              <mxPoint x="280" y="174" />
            </Array>
          </mxGeometry>
        </mxCell>
        <mxCell id="9gW7VN4m7bYU96dRgLf6-82" value="Power consumption report" style="edgeLabel;html=1;align=center;verticalAlign=middle;resizable=0;points=[];" vertex="1" connectable="0" parent="9gW7VN4m7bYU96dRgLf6-81">
          <mxGeometry x="0.3244" y="-1" relative="1" as="geometry">
            <mxPoint x="7" y="-2" as="offset" />
          </mxGeometry>
        </mxCell>
        <mxCell id="9gW7VN4m7bYU96dRgLf6-84" style="edgeStyle=orthogonalEdgeStyle;rounded=0;orthogonalLoop=1;jettySize=auto;html=1;" edge="1" parent="1" source="9gW7VN4m7bYU96dRgLf6-1">
          <mxGeometry relative="1" as="geometry">
            <mxPoint x="45" y="140" as="targetPoint" />
            <Array as="points">
              <mxPoint x="260" y="140" />
              <mxPoint x="45" y="140" />
            </Array>
          </mxGeometry>
        </mxCell>
        <mxCell id="9gW7VN4m7bYU96dRgLf6-85" value="Power consumption report" style="edgeLabel;html=1;align=center;verticalAlign=middle;resizable=0;points=[];" vertex="1" connectable="0" parent="9gW7VN4m7bYU96dRgLf6-84">
          <mxGeometry x="0.4456" relative="1" as="geometry">
            <mxPoint x="14" y="-1" as="offset" />
          </mxGeometry>
        </mxCell>
      </root>
    </mxGraphModel>
  </diagram>
</mxfile>
